<svg width="25" height="26" viewBox="0 0 25 26" fill="none" xmlns="http://www.w3.org/2000/svg">
<path d="M11.4585 14.4193H6.25017C5.95503 14.4193 5.70781 14.3193 5.5085 14.1193C5.30919 13.9193 5.20919 13.6721 5.2085 13.3776C5.20781 13.0832 5.30781 12.8359 5.5085 12.6359C5.70919 12.4359 5.95642 12.3359 6.25017 12.3359H11.4585V7.12761C11.4585 6.83247 11.5585 6.58525 11.7585 6.38594C11.9585 6.18664 12.2057 6.08664 12.5002 6.08594C12.7946 6.08525 13.0422 6.18525 13.2429 6.38594C13.4436 6.58664 13.5432 6.83386 13.5418 7.12761V12.3359H18.7502C19.0453 12.3359 19.2929 12.4359 19.4929 12.6359C19.6929 12.8359 19.7925 13.0832 19.7918 13.3776C19.7911 13.6721 19.6911 13.9196 19.4918 14.1203C19.2925 14.321 19.0453 14.4207 18.7502 14.4193H13.5418V19.6276C13.5418 19.9227 13.4418 20.1703 13.2418 20.3703C13.0418 20.5703 12.7946 20.67 12.5002 20.6693C12.2057 20.6686 11.9585 20.5686 11.7585 20.3693C11.5585 20.17 11.4585 19.9227 11.4585 19.6276V14.4193Z" fill="black"/>
</svg>
