<svg width="50" height="50" viewBox="0 0 50 50" fill="none" xmlns="http://www.w3.org/2000/svg">
<path d="M27.8261 0L13.913 15H0V35H13.913L27.8261 50V0ZM35.2841 4.32312L34.6087 7.03984C42.1545 9.21953 47.3913 16.5773 47.3913 25C47.3913 33.4227 42.1545 40.7803 34.6087 42.9602L35.2841 45.6769C43.958 43.1711 50 34.6816 50 25C50 15.3183 43.958 6.82891 35.2841 4.32312ZM33.4833 11.5677L32.8083 14.2844C37.313 15.5856 40.4348 19.9722 40.4348 25C40.4348 30.0278 37.313 34.4144 32.8083 35.7156L33.4833 38.4323C39.1162 36.805 43.0435 31.287 43.0435 25C43.0435 18.713 39.1162 13.195 33.4833 11.5677ZM31.6828 18.8119L31.0078 21.5286C32.471 21.9516 33.4783 23.3667 33.4783 25C33.4783 26.6333 32.471 28.0484 31.0077 28.4714L31.6828 31.1881C34.2746 30.4394 36.0871 27.8928 36.0871 25C36.0871 22.1072 34.2746 19.5606 31.6828 18.8119Z" fill="black"/>
</svg>
