<svg width="40" height="25" viewBox="0 0 40 25" fill="none" xmlns="http://www.w3.org/2000/svg">
<path d="M3.07158 9.70116L1.53579 10.903L0 9.70116L1.53579 8.49935L3.07158 9.70116ZM40 23.3001C40 23.751 39.7711 24.1833 39.3638 24.5021C38.9564 24.8209 38.4039 25 37.8277 25C37.2516 25 36.6991 24.8209 36.2917 24.5021C35.8843 24.1833 35.6555 23.751 35.6555 23.3001H40ZM12.3971 19.4023L1.53579 10.903L4.60736 8.49935L15.4687 16.9987L12.3971 19.4023ZM1.53579 8.49935L12.3971 0L15.4687 2.40362L4.60736 10.903L1.53579 8.49935ZM3.07158 8.00129H24.7942V11.401H3.07158V8.00129ZM40 19.9004V23.3001H35.6555V19.9004H40ZM24.7942 8.00129C28.827 8.00129 32.6947 9.25494 35.5463 11.4865C38.398 13.718 40 16.7446 40 19.9004H35.6555C35.6555 17.6462 34.5112 15.4844 32.4743 13.8904C30.4374 12.2965 27.6748 11.401 24.7942 11.401V8.00129Z" fill="#E3E0C0"/>
</svg>
