<svg width="38" height="44" viewBox="0 0 38 44" fill="none" xmlns="http://www.w3.org/2000/svg">
<g filter="url(#filter0_d_91_51)">
<path d="M15.9531 0L18.7748 11.459H27.9061L20.5187 18.541L23.3405 30L15.9531 22.918L8.56566 30L11.3874 18.541L4 11.459H13.1313L15.9531 0Z" fill="#6D3710"/>
</g>
<g filter="url(#filter1_d_91_51)">
<path d="M22.0468 0L24.8685 11.459H33.9999L26.6125 18.541L29.4342 30L22.0468 22.918L14.6594 30L17.4811 18.541L10.0938 11.459H19.2251L22.0468 0Z" fill="#9D480B"/>
</g>
<path d="M22.2549 14.5352C22.5573 14.545 22.8079 14.5523 23.0066 14.5572C23.2097 14.5572 23.3738 14.5572 23.4991 14.5572H23.8426H25.7737C25.7824 14.6554 25.7888 14.7511 25.7932 14.8443C25.8018 14.9327 25.8061 15.0112 25.8061 15.0799C25.8061 15.1633 25.804 15.2394 25.7996 15.3081C25.7953 15.3768 25.7888 15.4504 25.7802 15.5289C25.7716 15.5976 25.7629 15.6712 25.7543 15.7497C25.7456 15.8282 25.7305 15.9092 25.7089 15.9926C25.6484 15.7276 25.5664 15.5264 25.4627 15.389C25.3633 15.2516 25.2618 15.151 25.1581 15.0872C25.0371 15.0136 24.9097 14.9744 24.7757 14.9695C24.5986 14.9793 24.4604 14.9964 24.361 15.021C24.2616 15.0455 24.1839 15.0799 24.1277 15.124C24.0715 15.1682 24.0283 15.2197 23.9981 15.2786C23.9722 15.3326 23.9441 15.3939 23.9139 15.4626C23.8879 15.5215 23.8642 15.6123 23.8426 15.735C23.821 15.8381 23.7994 15.9779 23.7778 16.1546C23.7605 16.3313 23.741 16.5594 23.7194 16.8392C23.8361 16.7999 23.929 16.7631 23.9981 16.7288C24.0715 16.6944 24.1299 16.665 24.1731 16.6404C24.2206 16.611 24.2552 16.584 24.2768 16.5594C24.294 16.53 24.32 16.476 24.3545 16.3975C24.3804 16.3288 24.415 16.2356 24.4582 16.1178C24.5057 16 24.5619 15.8381 24.6267 15.632C24.6353 15.8577 24.6397 16.0466 24.6397 16.1988C24.6397 16.346 24.6418 16.4662 24.6461 16.5594C24.6461 16.6674 24.6483 16.7533 24.6526 16.8171V17.0968C24.6526 17.1999 24.6526 17.3397 24.6526 17.5164C24.6569 17.6881 24.6634 17.9065 24.6721 18.1715C24.6202 17.9899 24.5727 17.8476 24.5295 17.7446C24.4906 17.6366 24.4561 17.5556 24.4258 17.5017C24.3912 17.4379 24.361 17.3937 24.3351 17.3692C24.3048 17.3593 24.2638 17.3495 24.212 17.3397C24.1644 17.3348 24.104 17.3324 24.0305 17.3324C23.9614 17.3324 23.8728 17.3446 23.7648 17.3692C23.7519 17.6391 23.7497 17.8574 23.7583 18.0243C23.7713 18.1862 23.7886 18.3114 23.8102 18.3997C23.8318 18.5028 23.8577 18.5764 23.8879 18.6205C23.9268 18.6647 24.0046 18.7015 24.1212 18.731C24.2379 18.7555 24.3696 18.7653 24.5165 18.7604C24.6677 18.7506 24.8211 18.7211 24.9766 18.6721C25.1322 18.623 25.2704 18.542 25.3914 18.4292C25.4821 18.3359 25.5793 18.2181 25.683 18.0758C25.7694 17.9531 25.8645 17.7986 25.9681 17.6121C26.0761 17.4256 26.182 17.1999 26.2857 16.9349C26.2684 17.1557 26.2554 17.3397 26.2468 17.4869C26.2425 17.6293 26.236 17.7446 26.2274 17.8329C26.2187 17.936 26.2122 18.0145 26.2079 18.0685C26.2079 18.1274 26.2014 18.2108 26.1885 18.3187C26.1798 18.412 26.1647 18.5396 26.1431 18.7015C26.1258 18.8586 26.1021 19.0598 26.0718 19.3051C25.8688 19.31 25.6765 19.3149 25.4951 19.3198C25.3136 19.3198 25.1538 19.3223 25.0155 19.3272C24.8514 19.3321 24.7001 19.337 24.5619 19.3419C24.4193 19.3419 24.2616 19.3493 24.0888 19.364C23.9376 19.3738 23.7583 19.3885 23.551 19.4082C23.3479 19.4278 23.1233 19.4548 22.877 19.4891C22.8986 19.1554 22.9137 18.8414 22.9224 18.5469C22.9353 18.2476 22.944 17.985 22.9483 17.7593C22.9526 17.4943 22.9526 17.2489 22.9483 17.0232C22.9699 16.4588 22.9612 16.0025 22.9224 15.654C22.8835 15.3056 22.8381 15.0823 22.7863 14.9842C22.7604 14.9498 22.7236 14.9081 22.6761 14.859C22.6372 14.8198 22.5832 14.7732 22.5141 14.7192C22.445 14.6652 22.3586 14.6039 22.2549 14.5352Z" fill="black"/>
<path d="M19.0859 14.2258C19.2112 14.2503 19.3214 14.2675 19.4164 14.2773C19.5158 14.2871 19.5979 14.2945 19.6627 14.2994C19.7405 14.3043 19.8074 14.3068 19.8636 14.3068C19.9197 14.3068 19.9997 14.3019 20.1034 14.2921C20.1898 14.2822 20.3021 14.27 20.4403 14.2553C20.5829 14.2405 20.7579 14.216 20.9652 14.1816C20.9048 14.2013 20.8486 14.2577 20.7968 14.3509C20.7492 14.4393 20.706 14.535 20.6671 14.638C20.6196 14.7607 20.5786 14.8957 20.544 15.0429C20.5138 15.1754 20.4749 15.357 20.4274 15.5876C20.3842 15.8182 20.341 16.0685 20.2978 16.3384C20.2589 16.6083 20.2286 16.8831 20.207 17.1629C20.1854 17.4377 20.1811 17.6904 20.1941 17.9211C20.2114 18.1517 20.2524 18.3431 20.3172 18.4952C20.382 18.6424 20.4814 18.721 20.6153 18.7308C20.8184 18.7504 20.9868 18.7529 21.1208 18.7381C21.259 18.7185 21.3714 18.6915 21.4578 18.6572C21.5442 18.6228 21.6111 18.5836 21.6586 18.5394C21.7062 18.4903 21.7429 18.4437 21.7688 18.3995C21.8379 18.2867 21.9092 18.1419 21.9827 17.9652C22.0561 17.7886 22.1209 17.6193 22.1771 17.4573C22.2376 17.2954 22.2872 17.158 22.3261 17.0451C22.365 16.9322 22.3845 16.8782 22.3845 16.8831C22.3845 16.893 22.3823 16.9494 22.378 17.0525C22.378 17.1506 22.3758 17.2708 22.3715 17.4131C22.3715 17.5506 22.3693 17.6953 22.365 17.8474C22.365 17.9996 22.3628 18.1296 22.3585 18.2376C22.3542 18.3259 22.3499 18.4241 22.3456 18.532C22.3412 18.6253 22.3369 18.7357 22.3326 18.8633C22.3326 18.9909 22.3283 19.1307 22.3196 19.2829C22.1382 19.2681 21.9654 19.2583 21.8012 19.2534C21.637 19.2485 21.4923 19.246 21.367 19.246C21.2201 19.246 21.0841 19.2485 20.9588 19.2534C20.8248 19.2583 20.6693 19.2657 20.4922 19.2755C20.341 19.2853 20.153 19.2976 19.9284 19.3123C19.7037 19.3221 19.4445 19.3368 19.1507 19.3565C19.1853 19.2878 19.2134 19.224 19.235 19.1651C19.2609 19.1062 19.2803 19.0571 19.2933 19.0179C19.3106 18.9688 19.3214 18.9271 19.3257 18.8927C19.3516 18.7357 19.3732 18.5369 19.3905 18.2965C19.4078 18.0511 19.4208 17.791 19.4294 17.5162C19.4424 17.2414 19.4488 16.9617 19.4488 16.677C19.4532 16.3875 19.4532 16.1201 19.4488 15.8747C19.4445 15.6293 19.4359 15.4158 19.4229 15.2343C19.4143 15.0527 19.4013 14.9276 19.384 14.8589C19.3624 14.7803 19.3365 14.7018 19.3063 14.6233C19.2803 14.5546 19.2479 14.4859 19.2091 14.4172C19.1745 14.3436 19.1335 14.2798 19.0859 14.2258Z" fill="black"/>
<path d="M13.6939 14.2852C13.8322 14.2901 13.9531 14.2926 14.0568 14.2926C14.1605 14.2876 14.2448 14.2852 14.3096 14.2852H14.4975C14.545 14.2803 14.6033 14.2778 14.6725 14.2778C14.7329 14.2778 14.8064 14.2778 14.8928 14.2778C14.9792 14.2778 15.0786 14.2803 15.1909 14.2852C15.2254 14.4226 15.2643 14.5576 15.3075 14.6901C15.3551 14.8176 15.3961 14.933 15.4307 15.036C15.4739 15.1587 15.5171 15.274 15.5603 15.382C15.6035 15.49 15.6553 15.62 15.7158 15.7721C15.7676 15.8997 15.8303 16.0568 15.9037 16.2432C15.9772 16.4248 16.0636 16.6334 16.1629 16.8689C16.2105 16.7168 16.2537 16.5769 16.2925 16.4493C16.3358 16.3218 16.3725 16.2113 16.4027 16.1181C16.4373 16.0101 16.4654 15.912 16.487 15.8237C16.5086 15.7353 16.5323 15.6274 16.5582 15.4998C16.5798 15.3918 16.6036 15.2618 16.6295 15.1096C16.6598 14.9575 16.69 14.7808 16.7203 14.5796C16.8455 14.5796 16.9579 14.5796 17.0572 14.5796C17.1566 14.5796 17.243 14.5772 17.3164 14.5723C17.3985 14.5723 17.472 14.5698 17.5368 14.5649C17.6059 14.5649 17.6988 14.56 17.8154 14.5502C17.9148 14.5404 18.0466 14.533 18.2107 14.5281C18.3792 14.5183 18.5866 14.506 18.8329 14.4913C18.7421 14.5649 18.6687 14.6385 18.6125 14.7121C18.5607 14.7808 18.5196 14.8422 18.4894 14.8962C18.4548 14.96 18.4332 15.0213 18.4246 15.0802C18.416 15.1293 18.4073 15.2421 18.3987 15.4188C18.3944 15.5955 18.3879 15.8065 18.3792 16.0518C18.3749 16.2923 18.3706 16.5499 18.3663 16.8248C18.3663 17.0996 18.3684 17.3597 18.3728 17.605C18.3771 17.8504 18.3836 18.0639 18.3922 18.2454C18.4052 18.4221 18.4224 18.535 18.444 18.5841C18.4743 18.6429 18.5153 18.7116 18.5672 18.7902C18.6147 18.8589 18.6752 18.9374 18.7486 19.0257C18.8264 19.114 18.9279 19.2122 19.0532 19.3202C18.8545 19.33 18.6881 19.3373 18.5542 19.3422C18.4246 19.3471 18.3166 19.3521 18.2302 19.357C18.1308 19.3619 18.0509 19.3643 17.9904 19.3643C17.9256 19.3643 17.837 19.3668 17.7247 19.3717C17.6253 19.3766 17.4936 19.384 17.3294 19.3938C17.1652 19.3987 16.9535 19.4085 16.6943 19.4232C16.7548 19.3447 16.811 19.2662 16.8628 19.1877C16.9147 19.1091 16.9579 19.038 16.9924 18.9742C17.0356 18.9006 17.0724 18.8294 17.1026 18.7607C17.1328 18.6675 17.1566 18.4982 17.1739 18.2528C17.1912 18.0418 17.2041 17.74 17.2128 17.3474C17.2214 16.9499 17.2214 16.4174 17.2128 15.75C17.1307 15.9022 17.0572 16.0543 16.9924 16.2064C16.9319 16.3537 16.8779 16.4886 16.8304 16.6113C16.7786 16.7536 16.7311 16.891 16.6879 17.0235C16.6447 17.1609 16.5993 17.313 16.5518 17.4799C16.5086 17.6222 16.4567 17.7915 16.3962 17.9878C16.3401 18.1841 16.2753 18.4 16.2018 18.6356L15.9556 18.6503C15.921 18.454 15.8864 18.2773 15.8519 18.1203C15.8173 17.9584 15.7828 17.821 15.7482 17.7081C15.7093 17.5756 15.6704 17.4578 15.6316 17.3548C15.5883 17.2517 15.5408 17.1364 15.489 17.0088C15.4415 16.9008 15.3831 16.7732 15.314 16.626C15.2492 16.4788 15.1736 16.3144 15.0872 16.1328C15.044 16.6334 15.0181 17.0407 15.0094 17.3548C15.0008 17.6639 15.0008 17.9044 15.0094 18.0761C15.0181 18.2822 15.031 18.4319 15.0483 18.5252C15.0742 18.6086 15.1153 18.7018 15.1714 18.8049C15.219 18.8932 15.2838 18.9987 15.3659 19.1214C15.4523 19.2392 15.5624 19.3717 15.6964 19.5189C15.6013 19.5189 15.5019 19.5189 15.3983 19.5189C15.2946 19.5189 15.1995 19.5214 15.1131 19.5263C15.0094 19.5312 14.9079 19.5336 14.8085 19.5336C14.7049 19.5385 14.5839 19.5459 14.4456 19.5557C14.3247 19.5655 14.1799 19.5753 14.0115 19.5852C13.843 19.595 13.6486 19.6121 13.4282 19.6367C13.5233 19.568 13.601 19.5017 13.6615 19.4379C13.722 19.3692 13.7695 19.3079 13.8041 19.2539C13.8473 19.1901 13.8797 19.1263 13.9013 19.0625C13.9143 19.0233 13.9251 18.9374 13.9337 18.8049C13.9467 18.6724 13.9575 18.5104 13.9661 18.3191C13.9791 18.1277 13.9877 17.9142 13.992 17.6786C14.0007 17.4431 14.0071 17.2051 14.0115 16.9646C14.0201 16.7193 14.0266 16.4812 14.0309 16.2506C14.0352 16.015 14.0374 15.804 14.0374 15.6175C14.0417 15.4262 14.0439 15.2667 14.0439 15.1391C14.0439 15.0115 14.0439 14.9305 14.0439 14.8962C14.0309 14.8226 14.0115 14.7489 13.9855 14.6753C13.9639 14.6115 13.9294 14.5453 13.8818 14.4766C13.8343 14.4079 13.7717 14.3441 13.6939 14.2852Z" fill="black"/>
<defs>
<filter id="filter0_d_91_51" x="0" y="0" width="31.9062" height="44" filterUnits="userSpaceOnUse" color-interpolation-filters="sRGB">
<feFlood flood-opacity="0" result="BackgroundImageFix"/>
<feColorMatrix in="SourceAlpha" type="matrix" values="0 0 0 0 0 0 0 0 0 0 0 0 0 0 0 0 0 0 127 0" result="hardAlpha"/>
<feOffset dy="10"/>
<feGaussianBlur stdDeviation="2"/>
<feComposite in2="hardAlpha" operator="out"/>
<feColorMatrix type="matrix" values="0 0 0 0 0 0 0 0 0 0 0 0 0 0 0 0 0 0 0.25 0"/>
<feBlend mode="normal" in2="BackgroundImageFix" result="effect1_dropShadow_91_51"/>
<feBlend mode="normal" in="SourceGraphic" in2="effect1_dropShadow_91_51" result="shape"/>
</filter>
<filter id="filter1_d_91_51" x="6.09375" y="0" width="31.9062" height="44" filterUnits="userSpaceOnUse" color-interpolation-filters="sRGB">
<feFlood flood-opacity="0" result="BackgroundImageFix"/>
<feColorMatrix in="SourceAlpha" type="matrix" values="0 0 0 0 0 0 0 0 0 0 0 0 0 0 0 0 0 0 127 0" result="hardAlpha"/>
<feOffset dy="10"/>
<feGaussianBlur stdDeviation="2"/>
<feComposite in2="hardAlpha" operator="out"/>
<feColorMatrix type="matrix" values="0 0 0 0 0 0 0 0 0 0 0 0 0 0 0 0 0 0 0.25 0"/>
<feBlend mode="normal" in2="BackgroundImageFix" result="effect1_dropShadow_91_51"/>
<feBlend mode="normal" in="SourceGraphic" in2="effect1_dropShadow_91_51" result="shape"/>
</filter>
</defs>
</svg>
