<svg width="30" height="30" viewBox="0 0 30 30" fill="none" xmlns="http://www.w3.org/2000/svg">
<path fill-rule="evenodd" clip-rule="evenodd" d="M2.19512 23.0769C2.7773 23.0769 3.33564 23.4416 3.74731 24.0908C4.15897 24.74 4.39024 25.6204 4.39024 26.5385C4.39024 27.4565 4.15897 28.337 3.74731 28.9861C3.33564 29.6353 2.7773 30 2.19512 30C1.61294 30 1.0546 29.6353 0.642936 28.9861C0.231271 28.337 0 27.4565 0 26.5385C0 25.6204 0.231271 24.74 0.642936 24.0908C1.0546 23.4416 1.61294 23.0769 2.19512 23.0769ZM28.5351 24.2308C29.3444 24.2308 30 25.2554 30 26.5385C30 27.8135 29.3488 28.8462 28.5351 28.8462H8.05024C7.85784 28.8471 7.66721 28.788 7.48931 28.6724C7.31142 28.5568 7.14977 28.3869 7.01365 28.1724C6.87752 27.958 6.76961 27.7032 6.69612 27.4228C6.62262 27.1424 6.58498 26.8419 6.58537 26.5385C6.58537 25.2635 7.23659 24.2308 8.05024 24.2308H28.5351ZM2.19512 11.5385C2.7773 11.5385 3.33564 11.9032 3.74731 12.5523C4.15897 13.2015 4.39024 14.0819 4.39024 15C4.39024 15.9181 4.15897 16.7985 3.74731 17.4477C3.33564 18.0968 2.7773 18.4615 2.19512 18.4615C1.61294 18.4615 1.0546 18.0968 0.642936 17.4477C0.231271 16.7985 0 15.9181 0 15C0 14.0819 0.231271 13.2015 0.642936 12.5523C1.0546 11.9032 1.61294 11.5385 2.19512 11.5385ZM28.5351 12.6923C29.3444 12.6923 30 13.7169 30 15C30 16.275 29.3488 17.3077 28.5351 17.3077H8.05024C7.85784 17.3086 7.66721 17.2496 7.48931 17.1339C7.31142 17.0183 7.14977 16.8484 7.01365 16.634C6.87752 16.4195 6.76961 16.1648 6.69612 15.8844C6.62262 15.604 6.58498 15.3034 6.58537 15C6.58537 13.725 7.23659 12.6923 8.05024 12.6923H28.5351ZM2.19512 0C2.7773 0 3.33564 0.364696 3.74731 1.01386C4.15897 1.66303 4.39024 2.54348 4.39024 3.46154C4.39024 4.3796 4.15897 5.26005 3.74731 5.90922C3.33564 6.55838 2.7773 6.92308 2.19512 6.92308C1.61294 6.92308 1.0546 6.55838 0.642936 5.90922C0.231271 5.26005 0 4.3796 0 3.46154C0 2.54348 0.231271 1.66303 0.642936 1.01386C1.0546 0.364696 1.61294 0 2.19512 0ZM28.5351 1.15385C29.3444 1.15385 30 2.17846 30 3.46154C30 4.73654 29.3488 5.76923 28.5351 5.76923H8.05024C7.85784 5.77014 7.66721 5.71109 7.48931 5.59547C7.31142 5.47985 7.14977 5.30994 7.01365 5.0955C6.87752 4.88106 6.76961 4.62632 6.69612 4.34591C6.62262 4.0655 6.58498 3.76495 6.58537 3.46154C6.58537 2.18654 7.23659 1.15385 8.05024 1.15385H28.5351Z" fill="#FBEC6C"/>
</svg>
