<svg width="25" height="25" viewBox="0 0 25 25" fill="none" xmlns="http://www.w3.org/2000/svg">
<path d="M0.698324 25H24.3017C24.4869 25 24.6645 24.9262 24.7955 24.7948C24.9264 24.6634 25 24.4852 25 24.2994C25 24.1136 24.9264 23.9354 24.7955 23.804C24.6645 23.6726 24.4869 23.5988 24.3017 23.5988H0.698324C0.513117 23.5988 0.335495 23.6726 0.204534 23.804C0.073573 23.9354 0 24.1136 0 24.2994C0 24.4852 0.073573 24.6634 0.204534 24.7948C0.335495 24.9262 0.513117 25 0.698324 25ZM9.30447 19.7344C9.8941 19.568 10.4322 19.2547 10.8687 18.8237L24.1927 5.45654C24.649 4.99697 24.9052 4.37475 24.9052 3.7261C24.9052 3.07745 24.649 2.45523 24.1927 1.99566L22.8799 0.692576C22.415 0.248001 21.7973 0 21.155 0C20.5127 0 19.8951 0.248001 19.4302 0.692576L6.10614 14.0457C5.67649 14.4813 5.36827 15.0225 5.21229 15.615L4.17877 19.4822C4.13018 19.6589 4.12914 19.8453 4.17575 20.0226C4.22237 20.1998 4.31497 20.3614 4.44413 20.491C4.64207 20.6856 4.90724 20.7961 5.18436 20.7993L9.30447 19.7344ZM9.87709 17.8288C9.61953 18.0917 9.29638 18.2804 8.94134 18.3753L7.58659 18.7396L6.18994 17.3384L6.55307 15.9793C6.6495 15.6239 6.83734 15.3002 7.09776 15.0405L7.62849 14.5221L10.4078 17.3104L9.87709 17.8288ZM11.3994 16.3156L8.62011 13.5273L18.0196 4.09741L20.7989 6.88573L11.3994 16.3156ZM23.2011 4.47572L21.7905 5.8909L19.0112 3.10258L20.4218 1.67339C20.6182 1.4766 20.8844 1.36606 21.162 1.36606C21.4396 1.36606 21.7058 1.4766 21.9022 1.67339L23.2011 2.99049C23.3959 3.18825 23.5052 3.45507 23.5052 3.73311C23.5052 4.01114 23.3959 4.27797 23.2011 4.47572Z" fill="#FBEC6C"/>
</svg>
