<svg width="10" height="30" viewBox="0 0 10 30" fill="none" xmlns="http://www.w3.org/2000/svg">
<path d="M0 3.0003C0 2.58026 -5.16884e-07 2.37324 0.0399995 2.19922C0.167271 1.64929 0.590144 1.1393 1.2444 0.746713C1.89865 0.354122 2.74854 0.100373 3.665 0.0240021C3.95 -3.10161e-07 4.3 0 5 0C5.7 0 6.045 -3.10161e-07 6.335 0.0240021C7.25146 0.100373 8.10135 0.354122 8.7556 0.746713C9.40986 1.1393 9.83273 1.64929 9.96 2.19922C10 2.37024 10 2.58026 10 3.0003C10 3.42034 10 3.62736 9.96 3.80138C9.83273 4.35131 9.40986 4.8613 8.7556 5.25389C8.10135 5.64648 7.25146 5.90023 6.335 5.9766C6.05 6.0006 5.7 6.0006 5 6.0006C4.3 6.0006 3.955 6.0006 3.665 5.9766C2.74854 5.90023 1.89865 5.64648 1.2444 5.25389C0.590144 4.8613 0.167271 4.35131 0.0399995 3.80138C-5.16884e-07 3.63036 0 3.42034 0 3.0003ZM0 15.0015C0 14.5815 -5.16884e-07 14.3744 0.0399995 14.2004C0.167271 13.6505 0.590144 13.1405 1.2444 12.7479C1.89865 12.3553 2.74854 12.1016 3.665 12.0252C3.95 12.0012 4.3 12.0012 5 12.0012C5.7 12.0012 6.045 12.0012 6.335 12.0252C7.25146 12.1016 8.10135 12.3553 8.7556 12.7479C9.40986 13.1405 9.83273 13.6505 9.96 14.2004C10 14.3714 10 14.5815 10 15.0015C10 15.4215 10 15.6286 9.96 15.8026C9.83273 16.3525 9.40986 16.8625 8.7556 17.2551C8.10135 17.6477 7.25146 17.9014 6.335 17.9778C6.05 18.0018 5.7 18.0018 5 18.0018C4.3 18.0018 3.955 18.0018 3.665 17.9778C2.74854 17.9014 1.89865 17.6477 1.2444 17.2551C0.590144 16.8625 0.167271 16.3525 0.0399995 15.8026C-5.16884e-07 15.6316 0 15.4215 0 15.0015ZM0 27.0027C0 26.5857 -5.16884e-07 26.3756 0.0399995 26.2016C0.168016 25.6527 0.590603 25.1437 1.24378 24.7517C1.89697 24.3598 2.74518 24.1062 3.66 24.0294C3.955 24.0054 4.3 24.0054 4.995 24.0054C5.69 24.0054 6.045 24.0054 6.33 24.0294C7.24482 24.1062 8.09303 24.3598 8.74621 24.7517C9.39939 25.1437 9.82198 25.6527 9.95 26.2016C9.99 26.3756 9.99 26.5857 9.99 27.0027C9.99 27.4197 9.99 27.6298 9.95 27.8038C9.82198 28.3527 9.39939 28.8617 8.74621 29.2537C8.09303 29.6456 7.24482 29.8992 6.33 29.976C6.04 30 5.69 30 4.995 30C4.3 30 3.95 30 3.66 29.976C2.74518 29.8992 1.89697 29.6456 1.24378 29.2537C0.590603 28.8617 0.168016 28.3527 0.0399995 27.8038C-5.16884e-07 27.6298 0 27.4197 0 27.0027Z" fill="#E3E0C0"/>
</svg>
