<svg width="50" height="50" viewBox="0 0 50 50" fill="none" xmlns="http://www.w3.org/2000/svg">
<path fill-rule="evenodd" clip-rule="evenodd" d="M43.3671 6.63578L7.60899 19.5651L19.5217 26.46L30.0259 15.953C30.5588 15.4205 31.2813 15.1215 32.0346 15.1218C32.7879 15.122 33.5103 15.4215 34.0428 15.9544C34.5752 16.4873 34.8742 17.2098 34.874 17.9631C34.8737 18.7164 34.5742 19.4387 34.0413 19.9712L23.5343 30.4783L30.4349 42.3882L43.3671 6.63578ZM44.2843 0.263387C47.6778 -0.966222 50.9662 2.3222 49.7366 5.7157L34.7371 47.1902C33.5046 50.5922 28.8588 51.0068 27.0442 47.8746L17.9087 32.0913L2.12544 22.9558C-1.0068 21.1412 -0.592193 16.4954 2.80982 15.2629L44.2843 0.263387Z" fill="#FBEC6C"/>
</svg>
