<svg width="30" height="30" viewBox="0 0 30 30" fill="none" xmlns="http://www.w3.org/2000/svg">
<path d="M21.1287 0H15.0072C14.6095 0 14.2282 0.158035 13.947 0.43934C13.6659 0.720644 13.5079 1.10217 13.5079 1.5V18.75C13.5081 19.1237 13.4152 19.4916 13.2377 19.8204C13.0601 20.1493 12.8035 20.4287 12.491 20.6334C12.1785 20.8382 11.82 20.9618 11.4477 20.9932C11.0755 21.0245 10.7013 20.9626 10.359 20.8131C10.0166 20.6635 9.71694 20.431 9.48693 20.1365C9.25692 19.842 9.10385 19.4949 9.04155 19.1264C8.97925 18.7579 9.00968 18.3797 9.13008 18.0259C9.25049 17.6721 9.45708 17.3539 9.73121 17.1L9.91112 16.95C10.097 16.8101 10.2479 16.6289 10.3517 16.4206C10.4555 16.2123 10.5095 15.9827 10.5093 15.75V9.261C10.5095 9.03458 10.4585 8.81105 10.36 8.60718C10.2615 8.40332 10.1182 8.22439 9.94081 8.08383C9.76339 7.94327 9.55646 7.84472 9.33555 7.79556C9.11463 7.7464 8.88546 7.74792 8.66522 7.8C5.98012 8.43311 3.62134 10.0317 2.03762 12.2915C0.45391 14.5514 -0.244214 17.3148 0.0760704 20.0561C0.396354 22.7975 1.7127 25.3253 3.77466 27.1588C5.83662 28.9923 8.50032 30.0035 11.259 30L11.6233 29.9925C14.5407 29.8979 17.3069 28.672 19.3373 26.574C21.3678 24.476 22.5032 21.6703 22.5036 18.75V14.7L22.9699 14.9295C24.6521 15.7245 26.4677 16.2315 28.3523 16.419C28.5608 16.4397 28.7713 16.4165 28.9703 16.3509C29.1693 16.2852 29.3523 16.1786 29.5075 16.0378C29.6628 15.8971 29.7868 15.7253 29.8716 15.5336C29.9565 15.342 30.0002 15.1346 30 14.925V8.8755C30 8.52087 29.8743 8.17774 29.6454 7.90698C29.4165 7.63623 29.0991 7.45537 28.7496 7.3965C27.2154 7.13605 25.8 6.40482 24.6995 5.30404C23.599 4.20327 22.8677 2.78741 22.607 1.2525C22.5485 0.902523 22.3679 0.584634 22.0972 0.355317C21.8266 0.125999 21.4834 0.000104172 21.1287 0Z" fill="#FBEC6C"/>
</svg>
