<svg width="32" height="32" viewBox="0 0 32 32" fill="none" xmlns="http://www.w3.org/2000/svg">
<path d="M13.8253 2.5C8.04719 2.5105 5.02011 2.653 3.08656 4.58498C1 6.67447 1 10.0329 1 16.7499C1 23.4668 1 26.8253 3.08656 28.9133C5.17461 30.9998 8.5317 30.9998 15.2519 30.9998C21.9691 30.9998 25.3277 30.9998 27.4142 28.9133C29.3493 26.9783 29.4903 23.9528 29.5008 18.1734" stroke="black" stroke-width="2" stroke-linecap="round" stroke-linejoin="round"/>
<path d="M14.5846 17.5001C13.4986 3.7992 23.2039 -0.0857691 30.9711 1.24622C31.2846 5.78669 29.0615 7.48618 24.8314 8.27217C25.6489 9.12716 27.092 10.2012 26.936 11.5421C26.825 12.4991 26.177 12.9671 24.8779 13.9061C22.0338 15.9611 18.7398 17.2571 14.5846 17.5001Z" stroke="black" stroke-width="2" stroke-linecap="round" stroke-linejoin="round"/>
<path d="M11.5005 23.4999C14.5006 15.25 17.4406 12.454 20.5007 10" stroke="black" stroke-width="2" stroke-linecap="round" stroke-linejoin="round"/>
</svg>
