<svg width="30" height="30" viewBox="0 0 30 30" fill="none" xmlns="http://www.w3.org/2000/svg">
<path d="M1.66778 28.125L0.117837 27.4312C0.00708956 27.7447 -0.0264276 28.0861 0.020818 28.4192C0.0680635 28.7523 0.194322 29.0649 0.386283 29.3241C0.578245 29.5833 0.828798 29.7794 1.11153 29.8917C1.39427 30.0041 1.69871 30.0285 1.99276 29.9625L1.66778 28.125ZM9.5108 26.37L10.3008 24.7181L9.77246 24.3994L9.18581 24.5306L9.5108 26.37ZM4.37434 20.4694L5.92428 21.1631L6.19593 20.3869L5.86928 19.6388L4.37434 20.4694ZM26.6668 15C26.6668 21.0863 21.912 26.25 15.7839 26.25V30C23.5186 30 30 23.4113 30 15H26.6668ZM4.90265 15C4.90265 8.91375 9.65913 3.75 15.7856 3.75V0C8.05086 0 1.56778 6.58875 1.56778 15H4.90265ZM15.7856 3.75C21.912 3.75 26.6668 8.91375 26.6668 15H30C30 6.58875 23.5203 0 15.7856 0V3.75ZM15.7839 26.25C13.7756 26.25 11.9057 25.6875 10.3008 24.7181L8.72083 28.02C10.893 29.3301 13.3193 30.0106 15.7839 30V26.25ZM1.99276 29.9625L9.83579 28.2075L9.18581 24.5306L1.34279 26.2856L1.99276 29.9644V29.9625ZM5.86928 19.6388C5.2348 18.1964 4.90518 16.6093 4.90265 15H1.56778C1.56778 17.25 2.03776 19.3837 2.87773 21.3L5.86928 19.6388ZM2.82606 19.7756L0.117837 27.4331L3.21438 28.8169L5.92094 21.1613L2.8244 19.7756H2.82606Z" fill="black"/>
<path d="M10.0006 16.875C10.921 16.875 11.6672 16.0355 11.6672 15C11.6672 13.9645 10.921 13.125 10.0006 13.125C9.08015 13.125 8.33398 13.9645 8.33398 15C8.33398 16.0355 9.08015 16.875 10.0006 16.875Z" fill="black"/>
<path d="M15.8336 16.875C16.754 16.875 17.5002 16.0355 17.5002 15C17.5002 13.9645 16.754 13.125 15.8336 13.125C14.9132 13.125 14.167 13.9645 14.167 15C14.167 16.0355 14.9132 16.875 15.8336 16.875Z" fill="black"/>
<path d="M21.6666 16.875C22.587 16.875 23.3332 16.0355 23.3332 15C23.3332 13.9645 22.587 13.125 21.6666 13.125C20.7462 13.125 20 13.9645 20 15C20 16.0355 20.7462 16.875 21.6666 16.875Z" fill="black"/>
</svg>
