<svg width="52" height="52" viewBox="0 0 52 52" fill="none" xmlns="http://www.w3.org/2000/svg">
<path d="M24.3839 13.6709C24.3839 13.6709 20.1563 20.4845 18.1213 29.1175C16.0861 37.7504 16.5556 49.7129 16.5556 49.7129" fill="#FBEC6C"/>
<path d="M24.3839 13.6709C24.3839 13.6709 20.1563 20.4845 18.1213 29.1175C16.0861 37.7504 16.5556 49.7129 16.5556 49.7129" stroke="black" stroke-width="2" stroke-linecap="round" stroke-linejoin="round"/>
<path d="M43.0981 25.6066C43.6392 25.902 44.4956 26.1101 45.3345 26.2539C46.7927 26.5038 48.1403 25.6797 48.1023 24.4554C48.0317 22.1723 46.9484 18.4376 41.4351 15.4276C36.2299 12.5856 31.0607 12.5468 27.802 12.9552C25.9432 13.1882 25.2032 14.858 26.2698 16.131C27.2219 17.2674 28.331 18.4151 29.0808 18.6343C30.6465 19.0919 32.5306 17.8852 33.9026 18.6343C35.2745 19.3833 34.8664 21.1123 36.2384 21.8613C37.6103 22.6103 39.3903 21.6304 40.7623 22.3794C42.1341 23.1286 41.7261 24.8576 43.0981 25.6066Z" fill="#FBEC6C" stroke="black" stroke-width="2" stroke-linecap="round" stroke-linejoin="round"/>
<path d="M21.2529 17.5303C22.5959 17.1623 23.4269 15.9522 23.8923 14.9836C24.2769 14.1831 23.9333 13.2994 23.0321 12.8614C21.0035 11.8755 16.6738 10.5266 9.91973 12.1392C3.24359 13.7332 1.48 17.3599 1.03241 19.4957C0.822976 20.495 1.65058 21.3991 2.87647 21.511C3.75465 21.5914 4.71801 21.5557 5.29369 21.154C6.55701 20.2725 6.89911 19.1171 8.31055 18.8061C9.72198 18.4952 10.9396 19.9103 12.3512 19.5993C13.7626 19.2884 13.9565 17.5624 15.3679 17.2514C16.7795 16.9404 18.9044 18.1739 21.2529 17.5303Z" fill="#FBEC6C" stroke="black" stroke-width="2" stroke-linecap="round" stroke-linejoin="round"/>
<path d="M32.2122 3.37387C28.2973 4.66109 24.3828 11.0971 24.3841 13.6715L44.7389 5.94832C42.5772 2.87 36.1271 2.08666 32.2122 3.37387Z" fill="#FBEC6C" stroke="black" stroke-width="2" stroke-linecap="round" stroke-linejoin="round"/>
<path d="M21.2526 2.08532C27.5152 3.91525 26.5459 10.592 24.3842 13.6702L5.5968 3.27168C7.16246 0.798117 14.9899 0.25539 21.2526 2.08532Z" fill="#FBEC6C" stroke="black" stroke-width="2" stroke-linecap="round" stroke-linejoin="round"/>
<path d="M30.6465 40.7021C43.6169 40.7021 51 43.0074 51 45.851C51 48.6946 40.4856 50.9999 27.5152 50.9999C14.5449 50.9999 4.0304 48.6946 4.0304 45.851C4.0304 45.1569 4.65675 44.4949 5.79223 43.8907" fill="#FBEC6C"/>
<path d="M30.6465 40.7021C43.6169 40.7021 51 43.0074 51 45.851C51 48.6946 40.4856 50.9999 27.5152 50.9999C14.5449 50.9999 4.0304 48.6946 4.0304 45.851C4.0304 45.1569 4.65675 44.4949 5.79223 43.8907" stroke="black" stroke-width="2" stroke-linecap="round"/>
</svg>
