<svg width="30" height="30" viewBox="0 0 30 30" fill="none" xmlns="http://www.w3.org/2000/svg">
<path fill-rule="evenodd" clip-rule="evenodd" d="M14.2729 2.81338C12.2987 1.24676 10.0773 0.305357 7.7825 0.0627608C5.48766 -0.179835 3.1815 0.282949 1.04429 1.41494C0.735626 1.57747 0.471018 1.85897 0.284802 2.22291C0.0985862 2.58685 -0.000639187 3.01643 3.09851e-06 3.4559V25.4908C3.09851e-06 26.9648 1.12715 27.974 2.16286 27.4259C3.9131 26.5002 5.80142 26.1222 7.68035 26.3215C9.55928 26.5208 11.3779 27.292 12.9943 28.5749L14.6157 29.86C14.74 29.9601 14.8729 30.0017 15 29.9998C15.1359 30.0033 15.2697 29.9555 15.3857 29.8619L17.0057 28.5749C18.6221 27.292 20.4407 26.5208 22.3197 26.3215C24.1986 26.1222 26.0869 26.5002 27.8371 27.4259C28.0764 27.5526 28.3355 27.5997 28.5918 27.5631C28.848 27.5266 29.0936 27.4076 29.307 27.2165C29.5205 27.0253 29.6952 26.7679 29.816 26.4667C29.9368 26.1656 30 25.8298 30 25.4889V3.4559C30 2.55637 29.5857 1.74943 28.9557 1.41494C26.8185 0.283817 24.5125 -0.178171 22.2179 0.0650785C19.9233 0.308328 17.7024 1.25023 15.7286 2.81716L15 3.39543L14.2729 2.81338ZM16.0729 7.32996C16.0729 6.95406 15.96 6.59356 15.759 6.32775C15.5581 6.06195 15.2856 5.91263 15.0014 5.91263C14.7173 5.91263 14.4447 6.06195 14.2438 6.32775C14.0429 6.59356 13.93 6.95406 13.93 7.32996V25.2829C13.93 25.6588 14.0429 26.0193 14.2438 26.2851C14.4447 26.5509 14.7173 26.7003 15.0014 26.7003C15.2856 26.7003 15.5581 26.5509 15.759 26.2851C15.96 26.0193 16.0729 25.6588 16.0729 25.2829V7.32996Z" fill="black"/>
</svg>
