<svg width="50" height="50" viewBox="0 0 50 50" fill="none" xmlns="http://www.w3.org/2000/svg">
<path d="M25 11.2903L21.6516 11.5806C19.4864 8.29032 13.4189 0 7.37664 0C7.37664 0 2.41692 9.54839 7.27593 22.2903C5.89124 24.9677 5.03525 26.3548 4.85901 29.5484L0 30.4839L0.528701 33.6452L4.95972 32.8065L5.31218 35.0968L1.35952 38.129L2.5428 41L6.19335 38.129C9.08862 46 16.4149 50 25 50C33.5851 50 40.9114 46 43.8066 38.129L47.4572 41L48.6405 38.129L44.6878 35.0968L45.0403 32.8065L49.4713 33.6452L50 30.4839L45.141 29.5484C44.9648 26.3548 44.1088 24.9677 42.7241 22.2903C47.5831 9.54839 42.6234 0 42.6234 0C36.5811 0 30.5136 8.29032 28.3484 11.5806L25 11.2903ZM17.4471 20.9677C18.1148 20.9677 18.7552 21.3076 19.2274 21.9126C19.6995 22.5175 19.9648 23.338 19.9648 24.1935C19.9648 25.0491 19.6995 25.8696 19.2274 26.4745C18.7552 27.0795 18.1148 27.4194 17.4471 27.4194C16.7794 27.4194 16.139 27.0795 15.6669 26.4745C15.1948 25.8696 14.9295 25.0491 14.9295 24.1935C14.9295 23.338 15.1948 22.5175 15.6669 21.9126C16.139 21.3076 16.7794 20.9677 17.4471 20.9677ZM32.5529 20.9677C33.2206 20.9677 33.861 21.3076 34.3331 21.9126C34.8052 22.5175 35.0705 23.338 35.0705 24.1935C35.0705 25.0491 34.8052 25.8696 34.3331 26.4745C33.861 27.0795 33.2206 27.4194 32.5529 27.4194C31.8852 27.4194 31.2448 27.0795 30.7726 26.4745C30.3005 25.8696 30.0352 25.0491 30.0352 24.1935C30.0352 23.338 30.3005 22.5175 30.7726 21.9126C31.2448 21.3076 31.8852 20.9677 32.5529 20.9677ZM22.4824 30.6452H27.5176L25.7553 35.129C26.2588 37.1935 27.6687 38.7097 29.4058 38.7097C30.4074 38.7097 31.368 38.1999 32.0762 37.2924C32.7844 36.385 33.1823 35.1543 33.1823 33.871H34.4411C34.4411 35.582 33.9106 37.223 32.9663 38.4329C32.022 39.6429 30.7413 40.3226 29.4058 40.3226C27.5176 40.3226 25.8812 39 25 37.0968C24.1188 39 22.4824 40.3226 20.5942 40.3226C19.2587 40.3226 17.978 39.6429 17.0337 38.4329C16.0894 37.223 15.5589 35.582 15.5589 33.871H16.8177C16.8177 35.1543 17.2156 36.385 17.9238 37.2924C18.632 38.1999 19.5926 38.7097 20.5942 38.7097C22.3313 38.7097 23.7412 37.1935 24.2447 35.129L22.4824 30.6452Z" fill="#FBEC6C"/>
</svg>
