<svg width="50" height="50" viewBox="0 0 50 50" fill="none" xmlns="http://www.w3.org/2000/svg">
<path d="M25 38.75C30.825 38.75 35.75 35.1 37.775 30H12.225C14.225 35.1 19.175 38.75 25 38.75ZM16.25 22.5C17.2446 22.5 18.1984 22.1049 18.9017 21.4017C19.6049 20.6984 20 19.7446 20 18.75C20 17.7554 19.6049 16.8016 18.9017 16.0983C18.1984 15.3951 17.2446 15 16.25 15C15.2554 15 14.3016 15.3951 13.5983 16.0983C12.8951 16.8016 12.5 17.7554 12.5 18.75C12.5 19.7446 12.8951 20.6984 13.5983 21.4017C14.3016 22.1049 15.2554 22.5 16.25 22.5ZM33.75 22.5C34.7446 22.5 35.6984 22.1049 36.4016 21.4017C37.1049 20.6984 37.5 19.7446 37.5 18.75C37.5 17.7554 37.1049 16.8016 36.4016 16.0983C35.6984 15.3951 34.7446 15 33.75 15C32.7554 15 31.8016 15.3951 31.0983 16.0983C30.3951 16.8016 30 17.7554 30 18.75C30 19.7446 30.3951 20.6984 31.0983 21.4017C31.8016 22.1049 32.7554 22.5 33.75 22.5ZM25 45C19.6957 45 14.6086 42.8929 10.8579 39.1421C7.10714 35.3914 5 30.3043 5 25C5 19.6957 7.10714 14.6086 10.8579 10.8579C14.6086 7.10714 19.6957 5 25 5C30.3043 5 35.3914 7.10714 39.1421 10.8579C42.8929 14.6086 45 19.6957 45 25C45 30.3043 42.8929 35.3914 39.1421 39.1421C35.3914 42.8929 30.3043 45 25 45ZM25 0C11.175 0 0 11.25 0 25C0 31.6304 2.63392 37.9893 7.32233 42.6777C9.6438 44.9991 12.3998 46.8406 15.4329 48.097C18.4661 49.3534 21.717 50 25 50C31.6304 50 37.9893 47.3661 42.6777 42.6777C47.3661 37.9893 50 31.6304 50 25C50 21.717 49.3534 18.4661 48.097 15.4329C46.8406 12.3998 44.9991 9.6438 42.6777 7.32233C40.3562 5.00087 37.6002 3.15938 34.5671 1.90301C31.5339 0.646644 28.283 0 25 0Z" fill="#FBEC6C"/>
</svg>
