<svg width="50" height="50" viewBox="0 0 50 50" fill="none" xmlns="http://www.w3.org/2000/svg">
<path d="M19.0304 49.6106C23.402 47.7683 22.4441 42.6888 20.2338 39.4779C18.0481 36.1881 15.0273 33.9247 11.982 31.7402C9.80871 30.2732 7.86856 28.4429 6.23519 26.3186C5.54753 25.4501 4.14767 23.8447 5.57209 23.5288C7.02108 23.213 9.5261 24.7395 10.8032 25.3185C13.038 26.3186 15.2484 27.4766 17.3113 28.8452L19.7918 24.371C15.9606 21.6602 11.0488 19.2652 6.48078 18.5546C3.87752 18.1335 1.12691 18.7125 0.242782 21.7392C-0.543107 24.3447 0.709404 26.9766 2.13383 29.0294C5.49841 33.8457 10.7295 36.1618 14.6344 40.3201C15.4694 41.1886 16.4763 42.215 16.9675 43.4257C17.4832 44.5837 17.3604 44.6627 16.2062 44.6627C13.1608 44.6627 9.35418 42.1098 6.87372 40.4254L4.39326 44.8995C8.15079 47.3735 14.4379 51.2423 19.0304 49.6106ZM41.6493 14.0278L27.7243 28.9505H22.1003V22.9235L36.0253 7.97454L41.6493 14.0278ZM49.9994 11.975C49.9748 12.7645 49.2135 13.5804 48.4276 14.3963L42.2387 21.0549L40.1021 18.7652L46.4874 11.9486L45.0385 10.3958L43.393 12.1592L37.769 6.13223L43.0492 0.473735C43.6386 -0.157912 44.5964 -0.157912 45.1613 0.473735L48.6732 4.23729C49.2626 4.8163 49.2626 5.86905 48.6732 6.50069C48.1575 7.05338 47.6663 7.57976 47.6663 8.10613C47.6172 8.6325 48.1083 9.21151 48.5995 9.65893C49.3117 10.4485 50.0239 11.1854 49.9994 11.975Z" fill="#FBEC6C"/>
</svg>
