<svg width="30" height="30" viewBox="0 0 30 30" fill="none" xmlns="http://www.w3.org/2000/svg">
<path d="M15.0444 30C12.9593 30 11.0062 29.6397 9.185 28.9191C7.36384 28.1986 5.77388 27.22 4.41514 25.9835C3.05639 24.747 1.98058 23.2996 1.18772 21.6413C0.394852 19.983 -0.00105364 18.2056 2.10588e-06 16.309C0.00105785 14.4125 0.396963 12.6351 1.18772 10.9768C1.97847 9.31849 3.05428 7.87158 4.41514 6.63603C5.776 5.40048 7.36595 4.42146 9.185 3.69896C11.0041 2.97646 12.9572 2.61617 15.0444 2.61809V0.744596C15.0444 0.408327 15.2028 0.180144 15.5195 0.060048C15.8362 -0.060048 16.1265 0 16.3905 0.240192L20.2704 3.77102C20.5871 4.05925 20.7454 4.39552 20.7454 4.77982C20.7454 5.16413 20.5871 5.5004 20.2704 5.78863L16.3905 9.31946C16.1265 9.55965 15.8362 9.61969 15.5195 9.4996C15.2028 9.3795 15.0444 9.15132 15.0444 8.81505V6.94155C12.1939 6.94155 9.76567 7.85428 7.75975 9.67974C5.75383 11.5052 4.75087 13.715 4.75087 16.309C4.75087 17.8943 5.15311 19.3657 5.95758 20.7233C6.76206 22.0809 7.83787 23.1795 9.185 24.0192C9.6073 23.3467 10.2344 22.7765 11.0663 22.3086C11.8983 21.8407 12.8548 21.5462 13.9359 21.4251C13.8567 20.9207 13.7511 20.4163 13.6191 19.9119C13.4872 19.4075 13.3288 18.9391 13.1441 18.5068C12.8537 18.723 12.537 18.8911 12.1939 19.0112C11.8508 19.1313 11.4813 19.1914 11.0853 19.1914C10.2144 19.1914 9.469 18.9094 8.84928 18.3454C8.22955 17.7814 7.91916 17.1026 7.91811 16.309V14.8679C7.91811 14.6757 7.89805 14.4898 7.85793 14.3102C7.81781 14.1305 7.77189 13.9561 7.72015 13.787C7.58819 13.5228 7.60825 13.2764 7.78033 13.0477C7.95242 12.8191 8.1831 12.7172 8.47237 12.7422C9.66009 12.7902 10.9138 13.0544 12.2335 13.5348C13.5532 14.0152 14.2262 14.94 14.2526 16.309C14.2526 16.5252 14.2331 16.7236 14.194 16.9042C14.1549 17.0849 14.0821 17.2708 13.9755 17.462C13.6323 17.2218 13.2892 17.0056 12.9461 16.8134C12.603 16.6213 12.2467 16.4532 11.8772 16.309C12.3259 16.6213 12.8405 17.1017 13.4212 17.7502C14.0019 18.3987 14.5429 19.1673 15.0444 20.056C15.5723 18.8791 16.2321 17.7204 17.0239 16.58C17.8157 15.4396 18.7395 14.3885 19.7953 13.4267C19.1882 13.811 18.6075 14.2194 18.0533 14.6517C17.499 15.0841 16.9579 15.5404 16.4301 16.0208C16.2453 15.7566 16.1001 15.4626 15.9946 15.1388C15.889 14.8151 15.8362 14.4845 15.8362 14.1473C15.8362 13.1385 16.2189 12.2858 16.9843 11.5893C17.7498 10.8927 18.6867 10.5444 19.7953 10.5444H21.3789C21.7484 10.5444 22.138 10.5022 22.5476 10.4176C22.9572 10.3331 23.3067 10.1712 23.596 9.93194C23.7807 9.76381 23.9919 9.72154 24.2294 9.80512C24.4669 9.88871 24.5857 10.0511 24.5857 10.2922C24.5857 10.8927 24.5398 11.6195 24.4479 12.4727C24.3561 13.3259 24.1449 14.1425 23.8145 14.9227C23.484 15.7028 23.0021 16.3691 22.3686 16.9215C21.7352 17.474 20.8774 17.7502 19.7953 17.7502C19.3994 17.7502 19.0235 17.7022 18.6677 17.6061C18.3119 17.51 17.9884 17.3779 17.697 17.2098C17.5122 17.6661 17.3011 18.2729 17.0635 19.0299C16.826 19.787 16.6412 20.5974 16.5093 21.4612C17.5122 21.6293 18.3964 21.9416 19.1618 22.3979C19.9272 22.8543 20.5079 23.3947 20.9038 24.0192C22.0123 23.3227 22.9361 22.458 23.6751 21.4251C24.4142 20.3923 24.9156 19.2514 25.1796 18.0024C25.3115 17.4019 25.6087 16.8975 26.0712 16.4892C26.5336 16.0809 27.081 15.8767 27.7134 15.8767C28.3996 15.8767 28.9739 16.0991 29.4363 16.544C29.8988 16.9888 30.0767 17.511 29.97 18.1105C29.4949 21.4972 27.8517 24.3257 25.0402 26.596C22.2288 28.8663 18.8968 30.001 15.0444 30Z" fill="black"/>
</svg>
